<svg xmlns="http://www.w3.org/2000/svg" width="34.375" height="32" viewBox="0 0 34.375 32">
    <defs>
        <linearGradient id="color" x2="1" y2="1">
            <stop offset="0" stop-color="#2defc8"/>
            <stop offset="1" stop-color="#daf796"/>
        </linearGradient>
    </defs>
    <path d="M237.841,340H227.313a3.818,3.818,0,0,1-2.4-6.784l8.333-8.333v3.651a2.287,2.287,0,0,0,2.284,2.284h.023a2.287,2.287,0,0,0,2.284-2.284v-9.2a2.287,2.287,0,0,0-2.284-2.284h-9.2a2.287,2.287,0,0,0-2.284,2.284v.023a2.287,2.287,0,0,0,2.284,2.284H230l-8.26,8.26a3.826,3.826,0,0,1-6.74-2.486V308h25.193a9.328,9.328,0,0,1,.937.047,9.216,9.216,0,0,1,.913.139c.3.061.592.137.88.226a8.761,8.761,0,0,1,.844.309,9.208,9.208,0,0,1,4.886,4.886c.116.275.22.559.309.844a8.931,8.931,0,0,1,.226.88,9.2,9.2,0,0,1,.139.912,9.333,9.333,0,0,1,.048.939v.045a9.045,9.045,0,0,1-.056,1A8.91,8.91,0,0,1,246.254,324a8.89,8.89,0,0,1,3.065,5.771,9.048,9.048,0,0,1,.056,1v.045a9.33,9.33,0,0,1-.047.939,9.215,9.215,0,0,1-.139.911c-.061.3-.137.592-.226.88a8.759,8.759,0,0,1-.309.844,9.209,9.209,0,0,1-4.886,4.886c-.275.116-.559.22-.844.309a8.942,8.942,0,0,1-.88.226,9.187,9.187,0,0,1-.912.139,9.314,9.314,0,0,1-.939.048Z"
          transform="translate(-215 -308)" fill="url(#color)"/>
</svg>
