<svg xmlns="http://www.w3.org/2000/svg" width="142.2" height="32" viewBox="0 0 142.2 32">
    <defs>
        <linearGradient id="gradient" x2="1" y2="1">
            <stop offset="0" stop-color="#2defc8"/>
            <stop offset="1" stop-color="#daf796"/>
        </linearGradient>
    </defs>
    <g transform="translate(-165 -46)">
        <path d="M237.841,340H227.313a3.818,3.818,0,0,1-2.4-6.784l8.333-8.333v3.651a2.287,2.287,0,0,0,2.284,2.284h.023a2.287,2.287,0,0,0,2.284-2.284v-9.2a2.287,2.287,0,0,0-2.284-2.284h-9.2a2.287,2.287,0,0,0-2.284,2.284v.023a2.287,2.287,0,0,0,2.284,2.284H230l-8.26,8.26a3.826,3.826,0,0,1-6.74-2.486V308h25.193a9.328,9.328,0,0,1,.937.047,9.216,9.216,0,0,1,.913.139c.3.061.592.137.88.226a8.761,8.761,0,0,1,.844.309,9.208,9.208,0,0,1,4.886,4.886c.116.275.22.559.309.844a8.931,8.931,0,0,1,.226.88,9.2,9.2,0,0,1,.139.912,9.333,9.333,0,0,1,.048.939v.045a9.045,9.045,0,0,1-.056,1A8.91,8.91,0,0,1,246.254,324a8.89,8.89,0,0,1,3.065,5.771,9.048,9.048,0,0,1,.056,1v.045a9.33,9.33,0,0,1-.047.939,9.215,9.215,0,0,1-.139.911c-.061.3-.137.592-.226.88a8.759,8.759,0,0,1-.309.844,9.209,9.209,0,0,1-4.886,4.886c-.275.116-.559.22-.844.309a8.942,8.942,0,0,1-.88.226,9.187,9.187,0,0,1-.912.139,9.314,9.314,0,0,1-.939.048Z"
              transform="translate(-50 -262)" fill="url(#gradient)"/>
        <path d="M13.664-10.164a4.844,4.844,0,0,1,2.576,4.48A5.265,5.265,0,0,1,14.476-1.6,6.232,6.232,0,0,1,10.136,0H1.82V-19.6H9.548a6.1,6.1,0,0,1,4.242,1.554,5.1,5.1,0,0,1,1.722,3.962,4.78,4.78,0,0,1-1.848,3.92ZM9.548-15.988H5.684v4.312H9.548a2.01,2.01,0,0,0,1.5-.616,2.115,2.115,0,0,0,.6-1.54,2.142,2.142,0,0,0-.588-1.54,2,2,0,0,0-1.512-.616Zm.588,12.376A2.177,2.177,0,0,0,11.76-4.27a2.284,2.284,0,0,0,.64-1.666,2.249,2.249,0,0,0-.644-1.638,2.177,2.177,0,0,0-1.624-.658H5.684v4.62ZM29.456-14h3.612V0H29.456V-1.652A5.5,5.5,0,0,1,24.892.392a6.344,6.344,0,0,1-4.8-2.142,7.4,7.4,0,0,1-2-5.25,7.4,7.4,0,0,1,2-5.25,6.344,6.344,0,0,1,4.8-2.142,5.5,5.5,0,0,1,4.564,2.044ZM22.792-4.158a3.731,3.731,0,0,0,2.772,1.106A3.777,3.777,0,0,0,28.35-4.158,3.847,3.847,0,0,0,29.456-7,3.847,3.847,0,0,0,28.35-9.842a3.777,3.777,0,0,0-2.786-1.106,3.731,3.731,0,0,0-2.772,1.106A3.874,3.874,0,0,0,21.7-7a3.874,3.874,0,0,0,1.092,2.842ZM42.548.392A7.137,7.137,0,0,1,37.27-1.736,7.175,7.175,0,0,1,35.156-7a7.175,7.175,0,0,1,2.114-5.264,7.137,7.137,0,0,1,5.278-2.128,7.255,7.255,0,0,1,3.724.98A6.516,6.516,0,0,1,48.82-10.78L45.712-8.96a3.169,3.169,0,0,0-1.274-1.372,3.7,3.7,0,0,0-1.918-.5,3.619,3.619,0,0,0-2.688,1.078A3.761,3.761,0,0,0,38.768-7a3.726,3.726,0,0,0,1.064,2.73A3.619,3.619,0,0,0,42.52-3.192a3.84,3.84,0,0,0,1.946-.49A3.086,3.086,0,0,0,45.74-5.04l3.136,1.792A7.013,7.013,0,0,1,46.272-.6a7.177,7.177,0,0,1-3.724.992ZM63.8.01H59.6L54.5-6.35V.01H50.888v-19.6H54.5V-7.8l4.816-6.184h4.312L58-7.073Zm3.777-15.68a2.125,2.125,0,0,1-1.554-.658,2.125,2.125,0,0,1-.658-1.554,2.171,2.171,0,0,1,.658-1.568,2.1,2.1,0,0,1,1.554-.672,2.135,2.135,0,0,1,1.582.672,2.171,2.171,0,0,1,.658,1.568,2.125,2.125,0,0,1-.658,1.554,2.157,2.157,0,0,1-1.586.658ZM65.781.01v-14h3.612v14Zm14.3-16.52q-2.968-.224-2.968,2.38v.14H80.08v3.472H77.112V.01H73.5V-10.518H71.484V-13.99H73.5v-.14a5.865,5.865,0,0,1,1.652-4.508,6.4,6.4,0,0,1,4.928-1.344Zm12.257,2.52H96.2L91.1.033a9.234,9.234,0,0,1-2.9,4.358A6.642,6.642,0,0,1,83.713,5.61V2.25a3.629,3.629,0,0,0,2.31-.616A4.3,4.3,0,0,0,87.381-.438L81.641-13.99h3.948L89.24-4.58Z"
              transform="translate(211 71.802)" fill="#fff"/>
    </g>
</svg>
